<?xml version="1.0" encoding="UTF-8"?>
<svg xmlns="http://www.w3.org/2000/svg" xmlns:xlink="http://www.w3.org/1999/xlink" width="27px" height="22px" viewBox="0 0 27 22" version="1.1">
<g id="surface1">
<path style=" stroke:none;fill-rule:nonzero;fill:#FFF;fill-opacity:1;" d="M 16.285156 9.816406 C 16.363281 10.234375 16.417969 10.652344 16.417969 11.191406 C 16.417969 15.90625 13.3125 19.25 8.640625 19.25 C 4.164062 19.25 0.539062 15.558594 0.539062 11 C 0.539062 6.441406 4.164062 2.75 8.640625 2.75 C 10.828125 2.75 12.652344 3.558594 14.066406 4.910156 L 11.867188 7.0625 C 11.269531 6.476562 10.21875 5.789062 8.640625 5.789062 C 5.878906 5.789062 3.625 8.117188 3.625 11 C 3.625 13.882812 5.878906 16.210938 8.640625 16.210938 C 11.84375 16.210938 13.050781 13.859375 13.238281 12.65625 L 8.640625 12.65625 L 8.640625 9.816406 Z M 24.109375 10.09375 L 24.109375 7.699219 L 21.746094 7.699219 L 21.746094 10.09375 L 19.394531 10.09375 L 19.394531 12.5 L 21.746094 12.5 L 21.746094 14.894531 L 24.109375 14.894531 L 24.109375 12.5 L 26.460938 12.5 L 26.460938 10.09375 Z M 24.109375 10.09375 "/>
</g>
</svg>
