<?xml version="1.0" encoding="UTF-8"?>
<svg xmlns="http://www.w3.org/2000/svg" xmlns:xlink="http://www.w3.org/1999/xlink" width="40px" height="33px" viewBox="0 0 40 33" version="1.1">
<g id="surface1">
<path style=" stroke:none;fill-rule:nonzero;fill:rgb(20.784314%,20.784314%,20.784314%);fill-opacity:1;" d="M 24.125 14.722656 C 24.242188 15.351562 24.324219 15.980469 24.324219 16.785156 C 24.324219 23.859375 19.722656 28.875 12.800781 28.875 C 6.167969 28.875 0.796875 23.339844 0.796875 16.5 C 0.796875 9.660156 6.167969 4.125 12.800781 4.125 C 16.042969 4.125 18.746094 5.339844 20.839844 7.363281 L 17.582031 10.59375 C 16.695312 9.714844 15.140625 8.683594 12.800781 8.683594 C 8.710938 8.683594 5.371094 12.175781 5.371094 16.5 C 5.371094 20.824219 8.710938 24.316406 12.800781 24.316406 C 17.546875 24.316406 19.335938 20.789062 19.613281 18.984375 L 12.800781 18.984375 L 12.800781 14.722656 Z M 35.71875 15.140625 L 35.71875 11.550781 L 32.214844 11.550781 L 32.214844 15.140625 L 28.734375 15.140625 L 28.734375 18.75 L 32.214844 18.75 L 32.214844 22.339844 L 35.71875 22.339844 L 35.71875 18.75 L 39.203125 18.75 L 39.203125 15.140625 Z M 35.71875 15.140625 "/>
</g>
</svg>
