<?xml version="1.0" encoding="UTF-8"?>
<svg xmlns="http://www.w3.org/2000/svg" xmlns:xlink="http://www.w3.org/1999/xlink" width="30px" height="30px" viewBox="0 0 30 30" version="1.1">
<g id="surface1">
<path style=" stroke:none;fill-rule:nonzero;fill:rgb(20.784314%,20.784314%,20.784314%);fill-opacity:1;" d="M 26.914062 8.890625 C 26.9375 9.15625 26.9375 9.421875 26.9375 9.6875 C 26.9375 17.816406 20.75 27.183594 9.441406 27.183594 C 5.960938 27.183594 2.722656 26.171875 0 24.421875 C 0.496094 24.480469 0.972656 24.5 1.484375 24.5 C 4.359375 24.5 7.003906 23.527344 9.117188 21.871094 C 6.414062 21.8125 4.148438 20.042969 3.367188 17.609375 C 3.75 17.664062 4.132812 17.703125 4.53125 17.703125 C 5.082031 17.703125 5.632812 17.625 6.148438 17.496094 C 3.332031 16.921875 1.21875 14.449219 1.21875 11.457031 L 1.21875 11.382812 C 2.035156 11.839844 2.992188 12.125 3.996094 12.164062 C 2.339844 11.058594 1.253906 9.175781 1.253906 7.042969 C 1.253906 5.902344 1.5625 4.851562 2.09375 3.941406 C 5.121094 7.667969 9.671875 10.109375 14.769531 10.375 C 14.675781 9.917969 14.617188 9.441406 14.617188 8.96875 C 14.617188 5.578125 17.359375 2.816406 20.769531 2.816406 C 22.539062 2.816406 24.136719 3.558594 25.261719 4.757812 C 26.648438 4.492188 27.980469 3.980469 29.164062 3.273438 C 28.707031 4.699219 27.734375 5.902344 26.457031 6.664062 C 27.695312 6.527344 28.898438 6.183594 30 5.710938 C 29.164062 6.925781 28.117188 8.011719 26.914062 8.890625 Z M 26.914062 8.890625 "/>
</g>
</svg>
