<?xml version="1.0" encoding="UTF-8"?>
<svg xmlns="http://www.w3.org/2000/svg" xmlns:xlink="http://www.w3.org/1999/xlink" width="33px" height="29px" viewBox="0 0 33 29" version="1.1">
<g id="surface1">
<path style=" stroke:none;fill-rule:nonzero;fill:rgb(20.784314%,20.784314%,20.784314%);fill-opacity:1;" d="M 30.425781 7.027344 C 30.09375 5.6875 29.109375 4.636719 27.855469 4.273438 C 25.589844 3.625 16.5 3.625 16.5 3.625 C 16.5 3.625 7.410156 3.625 5.144531 4.273438 C 3.890625 4.636719 2.90625 5.6875 2.574219 7.027344 C 1.960938 9.453125 1.960938 14.519531 1.960938 14.519531 C 1.960938 14.519531 1.960938 19.589844 2.574219 22.019531 C 2.90625 23.355469 3.890625 24.363281 5.144531 24.726562 C 7.410156 25.375 16.5 25.375 16.5 25.375 C 16.5 25.375 25.589844 25.375 27.855469 24.726562 C 29.109375 24.363281 30.09375 23.355469 30.425781 22.019531 C 31.039062 19.589844 31.039062 14.519531 31.039062 14.519531 C 31.039062 14.519531 31.039062 9.453125 30.425781 7.027344 Z M 13.527344 19.125 L 13.527344 9.921875 L 21.125 14.519531 Z M 13.527344 19.125 "/>
</g>
</svg>
