<?xml version="1.0" encoding="UTF-8"?>
<svg xmlns="http://www.w3.org/2000/svg" xmlns:xlink="http://www.w3.org/1999/xlink" width="134px" height="178px" viewBox="0 0 134 178" version="1.1">
<g id="surface1">
<path style=" stroke:none;fill-rule:nonzero;fill:#cd0a2d;fill-opacity:1;" d="M 75.269531 173.550781 C 93.171875 151.230469 134 97.136719 134 66.75 C 134 29.898438 103.988281 0 67 0 C 30.011719 0 0 29.898438 0 66.75 C 0 97.136719 40.828125 151.230469 58.730469 173.550781 C 63.023438 178.867188 70.976562 178.867188 75.269531 173.550781 Z M 67 89 C 54.683594 89 44.667969 79.023438 44.667969 66.75 C 44.667969 54.476562 54.683594 44.5 67 44.5 C 79.316406 44.5 89.332031 54.476562 89.332031 66.75 C 89.332031 79.023438 79.316406 89 67 89 Z M 67 89 "/>
</g>
</svg>
